<svg width="386" height="158" viewBox="0 0 386 158" fill="none" xmlns="http://www.w3.org/2000/svg">
<rect width="386" height="158" rx="79" fill="#D9D9D9"/>
<path d="M108.367 96.8047H112.298C113.711 96.8047 114.713 96.5996 115.306 96.1895C115.898 95.7793 116.194 94.8906 116.194 93.5234V63.9922C116.194 62.6934 115.921 61.8275 115.374 61.3945C114.827 60.9388 113.825 60.7109 112.366 60.7109H108.367V55.5156H134.104V60.7109H129.661C128.385 60.7109 127.451 60.9388 126.858 61.3945C126.289 61.8275 126.004 62.6934 126.004 63.9922V96.8047H137.522C141.054 96.8047 143.458 95.7109 144.734 93.5234C146.01 91.3132 146.785 87.5762 147.059 82.3125H152.254V102H108.367V96.8047ZM155.125 85.7305C155.125 80.3984 156.731 76.1374 159.944 72.9473C163.18 69.7572 167.612 68.1621 173.24 68.1621C178.8 68.1621 183.209 69.7344 186.468 72.8789C189.726 76.0007 191.355 80.1934 191.355 85.457C191.355 90.8574 189.726 95.1413 186.468 98.3086C183.209 101.453 178.8 103.025 173.24 103.025C167.749 103.025 163.351 101.487 160.047 98.4111C156.766 95.335 155.125 91.1081 155.125 85.7305ZM164.559 85.5938C164.559 94.1387 167.475 98.4111 173.309 98.4111C179.051 98.4111 181.922 94.1387 181.922 85.5938C181.922 77.0488 179.028 72.7764 173.24 72.7764C167.452 72.7764 164.559 77.0488 164.559 85.5938ZM202.464 90.0371C198.772 88.5104 196.927 85.3773 196.927 80.6377C196.927 76.8779 198.305 73.8587 201.062 71.5801C203.842 69.3014 207.5 68.1621 212.034 68.1621C217.116 68.1621 221.092 69.3128 223.963 71.6143C225.74 69.3128 228.11 68.1621 231.072 68.1621C233.123 68.1621 234.798 68.8229 236.097 70.1445C237.418 71.4434 238.079 73.084 238.079 75.0664C238.079 76.7298 237.68 78.0059 236.883 78.8945C236.085 79.7604 235.037 80.1934 233.738 80.1934C232.28 80.1934 231.175 79.8516 230.423 79.168C229.671 78.4616 229.295 77.5843 229.295 76.5361C229.295 74.1663 230.411 72.7878 232.645 72.4004C232.394 71.6029 231.642 71.2041 230.389 71.2041C228.771 71.2041 227.233 72.2067 225.774 74.2119C227.05 76.764 227.688 78.8717 227.688 80.5352C227.688 84.4544 226.276 87.4736 223.45 89.5928C220.625 91.7119 216.774 92.7715 211.897 92.7715C208.935 92.7715 206.565 92.3841 204.788 91.6094C203.512 92.4753 202.874 93.3753 202.874 94.3096C202.874 96.0186 204.925 96.873 209.026 96.873H220.716C228.281 96.873 232.063 99.9264 232.063 106.033C232.063 113.188 225.433 116.766 212.171 116.766C200.459 116.766 194.603 114.225 194.603 109.144C194.603 105.771 196.972 103.823 201.712 103.299C197.747 102.547 195.765 100.405 195.765 96.873C195.765 94.959 196.391 93.3639 197.645 92.0879C198.898 90.8118 200.504 90.1283 202.464 90.0371ZM209.334 103.948C204.253 103.948 201.712 105.498 201.712 108.597C201.712 111.445 205.039 112.869 211.692 112.869C219.85 112.869 223.929 111.274 223.929 108.084C223.929 105.327 222.311 103.948 219.075 103.948H209.334ZM206.36 80.4668C206.36 86.0723 208.309 88.875 212.205 88.875C216.238 88.875 218.255 86.1862 218.255 80.8086C218.255 74.9753 216.238 72.0586 212.205 72.0586C208.309 72.0586 206.36 74.8613 206.36 80.4668ZM240.779 85.7305C240.779 80.3984 242.386 76.1374 245.599 72.9473C248.834 69.7572 253.266 68.1621 258.895 68.1621C264.454 68.1621 268.864 69.7344 272.122 72.8789C275.381 76.0007 277.01 80.1934 277.01 85.457C277.01 90.8574 275.381 95.1413 272.122 98.3086C268.864 101.453 264.454 103.025 258.895 103.025C253.403 103.025 249.005 101.487 245.701 98.4111C242.42 95.335 240.779 91.1081 240.779 85.7305ZM250.213 85.5938C250.213 94.1387 253.13 98.4111 258.963 98.4111C264.705 98.4111 267.576 94.1387 267.576 85.5938C267.576 77.0488 264.682 72.7764 258.895 72.7764C253.107 72.7764 250.213 77.0488 250.213 85.5938Z" fill="black"/>
</svg>
